Coordinates
version=1
nRows=6
nColumns=63
inDegrees=yes

Units are S.I. units (second, meters, Newtons, ...)
If the header above contains a line with 'inDegrees', this indicates whether rotational values are in degrees (yes) or radians (no).

endheader
time	pelvis_tilt	pelvis_list	pelvis_rotation	pelvis_tx	pelvis_ty	pelvis_tz	hip_flexion_r	hip_adduction_r	hip_rotation_r	knee_angle_r	knee_angle_r_beta	ankle_angle_r	subtalar_angle_r	mtp_angle_r	hip_flexion_l	hip_adduction_l	hip_rotation_l	knee_angle_l	knee_angle_l_beta	ankle_angle_l	subtalar_angle_l	mtp_angle_l	L5_S1_Flex_Ext	L5_S1_Lat_Bending	L5_S1_axial_rotation	L4_L5_Flex_Ext	L4_L5_Lat_Bending	L4_L5_axial_rotation	L3_L4_Flex_Ext	L3_L4_Lat_Bending	L3_L4_axial_rotation	L2_L3_Flex_Ext	L2_L3_Lat_Bending	L2_L3_axial_rotation	L1_L2_Flex_Ext	L1_L2_Lat_Bending	L1_L2_axial_rotation	L1_T12_Flex_Ext	L1_T12_Lat_Bending	L1_T12_axial_rotation	Abs_r3	Abs_r2	Abs_r1	Abs_t1	Abs_t2	neck_flexion	neck_bending	neck_rotation	arm_flex_r	arm_add_r	arm_rot_r	elbow_flex_r	pro_sup_r	wrist_flex_r	wrist_dev_r	arm_flex_l	arm_add_l	arm_rot_l	elbow_flex_l	pro_sup_l	wrist_flex_l	wrist_dev_l
      1.56000000	     -5.21548202	     -7.09654636	     93.10274894	      0.20009850	      0.92806083	      0.69686171	      7.08279193	     -0.90424881	     -2.33533498	      9.70777127	      0.16943257	     26.17698237	     -5.90420147	      0.00000000	      5.81916875	      0.01122034	     -4.50276147	      6.83093849	      0.11922237	     25.96494559	     15.14319557	      0.00000000	     -0.22658085	      0.05470198	     -0.26764272	     -0.42078330	      0.07275363	     -0.28437039	     -0.37224968	      0.13300239	     -0.28437039	     -0.25895926	      0.13300239	     -0.23418738	     -0.21040298	      0.11154827	     -0.21745971	     -0.12946830	      0.08473336	     -0.20073204	     -1.61844438	      0.61879970	     -1.48854850	      0.00000000	      0.00000000	     27.95086024	     -5.42046397	     -2.02843258	      3.82812747	    -14.75168954	     44.59471234	     24.26427742	     74.92458006	     -9.12949658	      0.52329304	     16.66915511	     -9.87498853	    143.91397838	     12.74754859	      8.05626553	     -4.16018489	     -3.06492312
      1.58000000	     -5.26784247	     -7.22589828	     93.09724320	      0.20021693	      0.92797961	      0.69807591	      6.62759248	     -0.94660565	     -2.44660504	      8.20006480	      0.14311813	     25.58943602	     -5.43630062	      0.00000000	      6.04974538	      0.07696677	     -4.54897536	      6.83923490	      0.11936717	     25.82093659	     15.04847469	      0.00000000	     -0.21289897	      0.04940441	     -0.23590083	     -0.39537468	      0.06570787	     -0.25064463	     -0.34977172	      0.12012189	     -0.25064463	     -0.24332224	      0.12012189	     -0.20641323	     -0.19769799	      0.10074548	     -0.19166942	     -0.12165047	      0.07652744	     -0.17692562	     -1.52071608	      0.55887260	     -1.31200965	      0.00000000	      0.00000000	     27.90325387	     -5.61182581	     -2.28753327	      3.89144614	    -14.70439242	     45.04421168	     23.91000349	     74.72980803	     -8.77785413	      1.15417598	     16.73606084	     -9.86379887	    144.00185358	     12.58149051	      8.21276488	     -4.13558570	     -3.34940946
      1.60000000	     -5.34767002	     -7.35713411	     93.03069599	      0.20043307	      0.92789054	      0.69963643	      6.18689972	     -1.01977531	     -2.60285706	      6.75720821	      0.11793553	     24.80024734	     -5.06699007	      0.00000000	      6.33087202	      0.16204833	     -4.63699361	      6.92053141	      0.12078606	     25.67335416	     14.93360499	      0.00000000	     -0.20053545	      0.04262176	     -0.20472823	     -0.37241438	      0.05668693	     -0.21752375	     -0.32945969	      0.10363054	     -0.21752375	     -0.22919196	      0.10363054	     -0.17913720	     -0.18621722	      0.08691428	     -0.16634169	     -0.11458595	      0.06602110	     -0.15354617	     -1.43240465	      0.48214582	     -1.13863701	      0.00000000	      0.00000000	     27.87251465	     -5.71963420	     -2.18494396	      3.98199775	    -14.61431730	     45.40781453	     23.47335522	     74.58773094	     -8.49662149	      1.67240184	     16.76360197	     -9.88991465	    143.97269482	     12.44983205	      8.23346853	     -4.02479594	     -3.60747464
      1.62000000	     -5.36355499	     -7.12981394	     93.23521300	      0.19987382	      0.92829125	      0.70068038	      5.15074145	     -1.05804412	     -2.96343062	      5.06626554	      0.08842301	     24.06227213	     -4.58410128	      0.00000000	      6.19645532	      0.23715193	     -4.10676299	      6.97428071	      0.12172416	     25.66621031	     14.45785864	      0.00000000	     -0.22795566	      0.05280596	     -0.33628889	     -0.42333646	      0.07023193	     -0.35730694	     -0.37450836	      0.12839242	     -0.35730694	     -0.26053053	      0.12839242	     -0.29425278	     -0.21167963	      0.10768192	     -0.27323472	     -0.13025387	      0.08179644	     -0.25221666	     -1.62826450	      0.59735161	     -1.87033790	      0.00000000	      0.00000000	     27.81205132	     -5.14178653	     -1.15125922	      5.37763306	    -14.98559950	     53.11200356	     22.34970117	     66.94640275	     -8.67327079	      0.80355110	     16.39986449	    -10.01163566	    143.06267818	     12.23963323	      8.24499712	     -3.58047886	     -4.02481021
      1.64000000	     -5.42594429	     -7.07212028	     93.08489019	      0.19980974	      0.92829227	      0.70194536	      4.48881917	     -1.12562355	     -2.72332461	      3.73956553	      0.06526773	     23.30583352	     -4.44639552	      0.00000000	      6.28059019	      0.31216082	     -4.13621217	      7.19113616	      0.12550900	     25.81123842	     14.25365794	      0.00000000	     -0.23310708	      0.05872208	     -0.40045013	     -0.43290315	      0.07810037	     -0.42547826	     -0.38297161	      0.14277688	     -0.42547826	     -0.26641808	      0.14277688	     -0.35039386	     -0.21646323	      0.11974607	     -0.32536573	     -0.13319738	      0.09096051	     -0.30033760	     -1.66506053	      0.66427596	     -2.22718348	      0.00000000	      0.00000000	     27.78027692	     -4.51884992	      0.07092449	      5.66552408	    -14.95671558	     53.85195980	     21.97966613	     67.18813362	     -8.54201142	      1.34833991	     16.10684237	    -10.09426540	    142.60229979	     12.13872794	      7.94194092	     -3.13980400	     -4.23677213
      1.66000000	     -5.58328820	     -7.10902847	     92.71649138	      0.19999070	      0.92805959	      0.70327809	      4.08077590	     -1.30599479	     -2.29588336	      2.73432115	      0.04772291	     22.75360123	     -4.08493915	      0.00000000	      6.45718877	      0.47418682	     -4.23399327	      7.47424846	      0.13045024	     26.09200749	     13.95014306	      0.00000000	     -0.22233232	      0.05372467	     -0.42790933	     -0.41289335	      0.07145382	     -0.45465366	     -0.36526976	      0.13062617	     -0.45465366	     -0.25410361	      0.13062617	     -0.37442066	     -0.20645779	      0.10955535	     -0.34767633	     -0.12704069	      0.08321952	     -0.32093200	     -1.58809751	      0.60774425	     -2.37990333	      0.00000000	      0.00000000	     27.75737739	     -4.34458841	      0.97041192	      5.82783439	    -14.87774556	     54.13979480	     21.65672854	     67.28993731	     -8.53259580	      1.77604072	     15.96121193	    -10.21339515	    142.46718209	     12.31213051	      7.85773478	     -2.90622996	     -4.25638793
